<svg width="626" height="464" viewBox="0 0 626 464" fill="none" xmlns="http://www.w3.org/2000/svg">
<path d="M556.992 157.99C556.992 162.408 553.41 165.99 548.992 165.99H340.106C337.834 165.99 335.67 166.955 334.153 168.646L309.51 196.095C304.609 201.555 295.557 198.088 295.557 190.751V173.99C295.557 169.572 291.975 165.99 287.557 165.99H265.518C261.099 165.99 257.518 162.408 257.518 157.99V8C257.518 3.58172 261.099 0 265.518 0H548.992C553.41 0 556.992 3.58172 556.992 8V157.99Z" fill="#E5E5E5"/>
<path d="M503.886 48.7607H310.624C308.414 48.7607 306.624 50.5516 306.624 52.7607V53.7519C306.624 55.961 308.414 57.7519 310.624 57.7519H503.886C506.096 57.7519 507.886 55.961 507.886 53.7519V52.7607C507.886 50.5516 506.096 48.7607 503.886 48.7607Z" fill="white"/>
<path d="M503.886 78.499H310.624C308.414 78.499 306.624 80.2899 306.624 82.499V83.4902C306.624 85.6993 308.414 87.4902 310.624 87.4902H503.886C506.096 87.4902 507.886 85.6993 507.886 83.4902V82.499C507.886 80.2899 506.096 78.499 503.886 78.499Z" fill="white"/>
<path d="M503.886 108.239H310.624C308.414 108.239 306.624 110.03 306.624 112.239V113.23C306.624 115.44 308.414 117.23 310.624 117.23H503.886C506.096 117.23 507.886 115.44 507.886 113.23V112.239C507.886 110.03 506.096 108.239 503.886 108.239Z" fill="white"/>
<path d="M296.163 239.576C300.343 239.576 303.732 236.188 303.732 232.008C303.732 227.828 300.343 224.439 296.163 224.439C291.983 224.439 288.594 227.828 288.594 232.008C288.594 236.188 291.983 239.576 296.163 239.576Z" fill="#E6E6E6"/>
<path d="M528.626 454.341H520.146L516.111 421.631H528.627L528.626 454.341Z" fill="#9F616A"/>
<path d="M530.789 462.561L503.445 462.56V462.214C503.445 459.392 504.567 456.685 506.563 454.689C508.559 452.693 511.266 451.571 514.088 451.571L530.79 451.572L530.789 462.561Z" fill="#333333"/>
<path d="M445.973 453.669L437.932 450.973L444.504 418.677L456.371 422.656L445.973 453.669Z" fill="#9F616A"/>
<path d="M445.411 462.15L419.485 453.458L419.595 453.13C420.492 450.454 422.416 448.243 424.943 446.986C427.469 445.728 430.392 445.525 433.069 446.422L448.904 451.731L445.411 462.15Z" fill="#333333"/>
<path d="M456.427 285.292L438.062 440.642L456.074 442.161C456.074 442.161 484.407 289.423 493.141 307.516C501.876 325.609 512.577 438.77 512.577 438.77H530.453C530.453 438.77 535.038 262.208 516.321 253.473L456.427 285.292Z" fill="#333333"/>
<path d="M504.027 157.305C505.76 147.465 499.188 138.081 489.347 136.348C479.506 134.614 470.123 141.186 468.39 151.027C466.656 160.868 473.228 170.251 483.069 171.985C492.91 173.719 502.293 167.146 504.027 157.305Z" fill="#9F616A"/>
<path d="M475.456 178.917L498.54 180.789C498.54 180.789 516.945 181.101 524.431 186.092C531.918 191.083 517.257 221.966 517.257 221.966C517.257 221.966 513.445 234.211 516.321 239.747C525.652 257.712 524.269 271.546 524.269 271.546C524.269 271.546 505.091 275.933 472.024 284.668C472.024 284.668 451.436 292.778 452.06 288.411C452.683 284.044 458.922 234.132 458.922 234.132V182.349L475.456 178.917Z" fill="#00579B"/>
<path d="M515.838 152.206C514.914 147.053 512.845 139.744 508.236 134.203C508.381 134.204 508.526 134.21 508.671 134.206C510.255 134.159 512.058 133.66 512.712 132.217C512.923 131.639 512.976 131.015 512.865 130.409C512.754 129.804 512.483 129.239 512.08 128.774C511.263 127.854 510.286 127.091 509.196 126.52C510.308 127.195 511.879 127.822 512.767 126.872C512.995 126.585 513.136 126.239 513.175 125.875C513.213 125.511 513.147 125.143 512.984 124.815C512.647 124.165 512.174 123.594 511.597 123.143C509.729 121.49 507.684 120.047 505.501 118.84C503.81 117.906 501.586 117.156 500.069 118.351C498.523 119.568 498.771 121.939 499.168 123.866C498.303 123.359 497.329 123.066 496.328 123.009C495.828 122.994 495.338 123.153 494.941 123.458C494.544 123.763 494.265 124.195 494.15 124.682C494.135 125.067 494.22 125.448 494.397 125.79C494.573 126.132 494.835 126.422 495.156 126.633C489.191 125.652 481.568 126.765 471.823 131.274C471.823 131.274 462.375 134.424 461.895 146.862C461.846 148.851 462.067 150.838 462.551 152.768C463.083 155.023 464.977 166.085 462.705 170.555L474.084 174.609L474.215 167.794C465.371 155.027 469.74 150.343 473.183 142.665C473.189 142.651 473.198 142.639 473.211 142.63C473.223 142.621 473.237 142.616 473.252 142.614C473.267 142.613 473.282 142.616 473.296 142.623C473.309 142.63 473.32 142.641 473.328 142.654C473.965 143.746 476.403 147.489 484.795 147.489L481.552 144.246C481.552 144.246 495.821 150.083 501.009 150.083C501.009 150.083 504.901 152.677 501.009 156.569C497.118 160.46 488.601 166.188 493.141 173.322C497.681 180.456 497.29 182.987 497.29 182.987L507.667 177.15C507.667 177.15 514.006 164.61 515.13 160.917C516.053 158.11 516.296 155.124 515.838 152.206Z" fill="#2F2E41"/>
<path d="M401.146 300.808C401.146 296.389 404.728 292.808 409.146 292.808H599.585C604.003 292.808 607.585 296.389 607.585 300.808V399.231C607.585 403.649 604.003 407.231 599.585 407.231H589.363C584.945 407.231 581.363 410.812 581.363 415.231V417.81C581.363 425.147 572.311 428.614 567.41 423.155L555.498 409.886C553.981 408.196 551.817 407.231 549.545 407.231H409.146C404.728 407.231 401.146 403.649 401.146 399.231V300.808Z" fill="#4AC97D"/>
<path d="M570.635 326.419H438.095C436.384 326.419 434.996 327.807 434.996 329.518C434.996 331.23 436.384 332.617 438.095 332.617H570.635C572.347 332.617 573.734 331.23 573.734 329.518C573.734 327.807 572.347 326.419 570.635 326.419Z" fill="white"/>
<path d="M570.635 346.92H438.095C436.384 346.92 434.996 348.307 434.996 350.019C434.996 351.73 436.384 353.118 438.095 353.118H570.635C572.347 353.118 573.734 351.73 573.734 350.019C573.734 348.307 572.347 346.92 570.635 346.92Z" fill="white"/>
<path d="M570.635 367.421H438.095C436.384 367.421 434.996 368.808 434.996 370.52C434.996 372.231 436.384 373.619 438.095 373.619H570.635C572.347 373.619 573.734 372.231 573.734 370.52C573.734 368.808 572.347 367.421 570.635 367.421Z" fill="white"/>
<path d="M526.693 219.491L514.585 222.434L514.493 246.94L500.874 293.944C499.784 294.806 498.951 295.951 498.465 297.253C497.979 298.555 497.859 299.965 498.119 301.33C498.378 302.696 499.006 303.964 499.935 304.998C500.864 306.031 502.058 306.791 503.388 307.194C504.718 307.596 506.133 307.627 507.48 307.283C508.826 306.938 510.052 306.231 511.025 305.239C511.998 304.247 512.681 303.007 512.999 301.654C513.317 300.301 513.259 298.887 512.83 297.565L529.111 248.905L526.693 219.491Z" fill="#9F616A"/>
<path d="M446.104 218.976L460.631 223.126L460.722 247.632L474.341 294.636C475.431 295.498 476.264 296.642 476.75 297.944C477.236 299.246 477.356 300.657 477.097 302.022C476.838 303.387 476.21 304.656 475.281 305.689C474.352 306.723 473.157 307.483 471.827 307.885C470.497 308.288 469.082 308.319 467.736 307.974C466.389 307.63 465.163 306.923 464.19 305.931C463.217 304.939 462.534 303.699 462.216 302.346C461.898 300.993 461.956 299.579 462.385 298.257L446.104 249.597V218.976Z" fill="#9F616A"/>
<path d="M508.522 183.597L511.523 182.618C513.208 182.069 515.04 182.196 516.633 182.973C516.633 182.973 525.368 183.597 526.615 189.836C527.863 196.075 530.898 250.607 530.898 250.607L512.397 244.72L508.522 183.597Z" fill="#00579B"/>
<path d="M466.409 183.597L461.098 183.33L459.416 182.489C459.416 182.489 449.564 183.597 448.316 189.836C447.068 196.075 443.438 252.288 443.438 252.288L461.939 247.243L466.409 183.597Z" fill="#00579B"/>
<path d="M226.426 397.935L235.196 390.285C234.821 384.79 234.136 379.321 233.145 373.903L228.305 375.951L232.795 372.034C231.503 365.347 230.224 361 230.224 361C230.224 361 212.53 376.712 202.629 395.88L206.973 410.168L200.338 400.72C199.352 403.001 198.51 405.341 197.817 407.728C190.913 431.811 193.182 453.589 202.885 456.371C212.587 459.152 226.05 441.884 232.954 417.8C234.968 410.086 235.788 402.108 235.385 394.145L226.426 397.935Z" fill="#F1F1F1"/>
<path d="M249.648 416.662L261.11 414.646C263.629 409.748 265.87 404.712 267.822 399.562L262.621 398.813L268.489 397.781C270.84 391.389 271.992 387.007 271.992 387.007C271.992 387.007 248.723 391.311 230.339 402.602L226.672 417.078L225.877 405.561C223.853 407.003 221.923 408.571 220.096 410.256C201.737 427.304 192.422 447.12 199.29 454.517C206.159 461.913 226.609 454.089 244.968 437.041C250.68 431.478 255.506 425.073 259.277 418.048L249.648 416.662Z" fill="#F1F1F1"/>
</svg>
